# xmcd CD database file
#
# Track frame offsets:
#	150
#	33740
#	65132
#	96482
#	118847
#	152085
#
# Disc length: 2406 seconds
#
# Revision: 0
# Processed by: cddbd v1.5.2PL0 Copyright (c) Steve Scherf et al.
# Submitted via: CDex 1.70beta2
#
DISCID=57096406
DTITLE=Carter Jefferson - The Rise Of Atlantis
DYEAR=1990
DGENRE=Jazz
TTITLE0=Why
TTITLE1=The Rise Of Atlantis
TTITLE2=Wind Chime
TTITLE3=Changing Trains
TTITLE4=Song For Gwen
TTITLE5=Blues For Wood
EXTD=YEAR: 1990
EXTT0=
EXTT1=
EXTT2=
EXTT3=
EXTT4=
EXTT5=
PLAYORDER=
